<?xml version="1.0" encoding="UTF-8" standalone="no"?>
<!-- Created with Inkscape (http://www.inkscape.org/) -->

<svg
   xmlns:dc="http://purl.org/dc/elements/1.1/"
   xmlns:cc="http://creativecommons.org/ns#"
   xmlns:rdf="http://www.w3.org/1999/02/22-rdf-syntax-ns#"
   xmlns:svg="http://www.w3.org/2000/svg"
   xmlns="http://www.w3.org/2000/svg"
   xmlns:sodipodi="http://sodipodi.sourceforge.net/DTD/sodipodi-0.dtd"
   xmlns:inkscape="http://www.inkscape.org/namespaces/inkscape"
   width="744.09448819"
   height="1052.3622047"
   id="svg4926"
   version="1.1"
   inkscape:version="0.48.1 "
   sodipodi:docname="New document 9">
  <defs
     id="defs4928">
    <marker
       inkscape:stockid="Arrow2Lend"
       orient="auto"
       refY="0"
       refX="0"
       id="Arrow2Lend"
       style="overflow:visible">
      <path
         id="path3902"
         style="font-size:12px;fill-rule:evenodd;stroke-width:0.625;stroke-linejoin:round"
         d="M 8.7185878,4.0337352 -2.2072895,0.01601326 8.7185884,-4.0017078 c -1.7454984,2.3720609 -1.7354408,5.6174519 -6e-7,8.035443 z"
         transform="matrix(-1.1,0,0,-1.1,-1.1,0)"
         inkscape:connector-curvature="0" />
    </marker>
    <marker
       inkscape:stockid="Arrow2Lend"
       orient="auto"
       refY="0"
       refX="0"
       id="marker5008"
       style="overflow:visible">
      <path
         id="path5010"
         style="font-size:12px;fill-rule:evenodd;stroke-width:0.625;stroke-linejoin:round"
         d="M 8.7185878,4.0337352 -2.2072895,0.01601326 8.7185884,-4.0017078 c -1.7454984,2.3720609 -1.7354408,5.6174519 -6e-7,8.035443 z"
         transform="matrix(-1.1,0,0,-1.1,-1.1,0)"
         inkscape:connector-curvature="0" />
    </marker>
    <marker
       inkscape:stockid="Arrow2Lend"
       orient="auto"
       refY="0"
       refX="0"
       id="marker5012"
       style="overflow:visible">
      <path
         id="path5014"
         style="font-size:12px;fill-rule:evenodd;stroke-width:0.625;stroke-linejoin:round"
         d="M 8.7185878,4.0337352 -2.2072895,0.01601326 8.7185884,-4.0017078 c -1.7454984,2.3720609 -1.7354408,5.6174519 -6e-7,8.035443 z"
         transform="matrix(-1.1,0,0,-1.1,-1.1,0)"
         inkscape:connector-curvature="0" />
    </marker>
    <marker
       inkscape:stockid="Arrow2Lend"
       orient="auto"
       refY="0"
       refX="0"
       id="marker5016"
       style="overflow:visible">
      <path
         id="path5018"
         style="font-size:12px;fill-rule:evenodd;stroke-width:0.625;stroke-linejoin:round"
         d="M 8.7185878,4.0337352 -2.2072895,0.01601326 8.7185884,-4.0017078 c -1.7454984,2.3720609 -1.7354408,5.6174519 -6e-7,8.035443 z"
         transform="matrix(-1.1,0,0,-1.1,-1.1,0)"
         inkscape:connector-curvature="0" />
    </marker>
    <marker
       inkscape:stockid="Arrow2Lend"
       orient="auto"
       refY="0"
       refX="0"
       id="marker5020"
       style="overflow:visible">
      <path
         id="path5022"
         style="font-size:12px;fill-rule:evenodd;stroke-width:0.625;stroke-linejoin:round"
         d="M 8.7185878,4.0337352 -2.2072895,0.01601326 8.7185884,-4.0017078 c -1.7454984,2.3720609 -1.7354408,5.6174519 -6e-7,8.035443 z"
         transform="matrix(-1.1,0,0,-1.1,-1.1,0)"
         inkscape:connector-curvature="0" />
    </marker>
    <marker
       inkscape:stockid="Arrow2Lend"
       orient="auto"
       refY="0"
       refX="0"
       id="Arrow2Lend-6"
       style="overflow:visible">
      <path
         id="path3902-2"
         style="font-size:12px;fill-rule:evenodd;stroke-width:0.625;stroke-linejoin:round"
         d="M 8.7185878,4.0337352 -2.2072895,0.01601326 8.7185884,-4.0017078 c -1.7454984,2.3720609 -1.7354408,5.6174519 -6e-7,8.035443 z"
         transform="matrix(-1.1,0,0,-1.1,-1.1,0)"
         inkscape:connector-curvature="0" />
    </marker>
    <marker
       inkscape:stockid="Arrow2Lend"
       orient="auto"
       refY="0"
       refX="0"
       id="Arrow2Lend-7"
       style="overflow:visible">
      <path
         id="path3902-6"
         style="font-size:12px;fill-rule:evenodd;stroke-width:0.625;stroke-linejoin:round"
         d="M 8.7185878,4.0337352 -2.2072895,0.01601326 8.7185884,-4.0017078 c -1.7454984,2.3720609 -1.7354408,5.6174519 -6e-7,8.035443 z"
         transform="matrix(-1.1,0,0,-1.1,-1.1,0)"
         inkscape:connector-curvature="0" />
    </marker>
    <marker
       inkscape:stockid="Arrow2Lend"
       orient="auto"
       refY="0"
       refX="0"
       id="Arrow2Lend-3"
       style="overflow:visible">
      <path
         id="path3902-9"
         style="font-size:12px;fill-rule:evenodd;stroke-width:0.625;stroke-linejoin:round"
         d="M 8.7185878,4.0337352 -2.2072895,0.01601326 8.7185884,-4.0017078 c -1.7454984,2.3720609 -1.7354408,5.6174519 -6e-7,8.035443 z"
         transform="matrix(-1.1,0,0,-1.1,-1.1,0)"
         inkscape:connector-curvature="0" />
    </marker>
    <marker
       inkscape:stockid="Arrow2Lend"
       orient="auto"
       refY="0"
       refX="0"
       id="Arrow2Lend-5"
       style="overflow:visible">
      <path
         id="path3902-8"
         style="font-size:12px;fill-rule:evenodd;stroke-width:0.625;stroke-linejoin:round"
         d="M 8.7185878,4.0337352 -2.2072895,0.01601326 8.7185884,-4.0017078 c -1.7454984,2.3720609 -1.7354408,5.6174519 -6e-7,8.035443 z"
         transform="matrix(-1.1,0,0,-1.1,-1.1,0)"
         inkscape:connector-curvature="0" />
    </marker>
    <marker
       inkscape:stockid="Arrow2Lend"
       orient="auto"
       refY="0"
       refX="0"
       id="Arrow2Lend-4"
       style="overflow:visible">
      <path
         id="path3902-29"
         style="font-size:12px;fill-rule:evenodd;stroke-width:0.625;stroke-linejoin:round"
         d="M 8.7185878,4.0337352 -2.2072895,0.01601326 8.7185884,-4.0017078 c -1.7454984,2.3720609 -1.7354408,5.6174519 -6e-7,8.035443 z"
         transform="matrix(-1.1,0,0,-1.1,-1.1,0)"
         inkscape:connector-curvature="0" />
    </marker>
    <marker
       inkscape:stockid="Arrow2Lend"
       orient="auto"
       refY="0"
       refX="0"
       id="marker5470"
       style="overflow:visible">
      <path
         id="path5472"
         style="font-size:12px;fill-rule:evenodd;stroke-width:0.625;stroke-linejoin:round"
         d="M 8.7185878,4.0337352 -2.2072895,0.01601326 8.7185884,-4.0017078 c -1.7454984,2.3720609 -1.7354408,5.6174519 -6e-7,8.035443 z"
         transform="matrix(-1.1,0,0,-1.1,-1.1,0)"
         inkscape:connector-curvature="0" />
    </marker>
    <marker
       inkscape:stockid="Arrow2Lend"
       orient="auto"
       refY="0"
       refX="0"
       id="marker5474"
       style="overflow:visible">
      <path
         id="path5476"
         style="font-size:12px;fill-rule:evenodd;stroke-width:0.625;stroke-linejoin:round"
         d="M 8.7185878,4.0337352 -2.2072895,0.01601326 8.7185884,-4.0017078 c -1.7454984,2.3720609 -1.7354408,5.6174519 -6e-7,8.035443 z"
         transform="matrix(-1.1,0,0,-1.1,-1.1,0)"
         inkscape:connector-curvature="0" />
    </marker>
    <marker
       inkscape:stockid="Arrow2Lend"
       orient="auto"
       refY="0"
       refX="0"
       id="Arrow2Lend-1"
       style="overflow:visible">
      <path
         id="path3902-4"
         style="font-size:12px;fill-rule:evenodd;stroke-width:0.625;stroke-linejoin:round"
         d="M 8.7185878,4.0337352 -2.2072895,0.01601326 8.7185884,-4.0017078 c -1.7454984,2.3720609 -1.7354408,5.6174519 -6e-7,8.035443 z"
         transform="matrix(-1.1,0,0,-1.1,-1.1,0)"
         inkscape:connector-curvature="0" />
    </marker>
    <marker
       inkscape:stockid="Arrow2Lend"
       orient="auto"
       refY="0"
       refX="0"
       id="Arrow2Lend-14"
       style="overflow:visible">
      <path
         id="path3902-0"
         style="font-size:12px;fill-rule:evenodd;stroke-width:0.625;stroke-linejoin:round"
         d="M 8.7185878,4.0337352 -2.2072895,0.01601326 8.7185884,-4.0017078 c -1.7454984,2.3720609 -1.7354408,5.6174519 -6e-7,8.035443 z"
         transform="matrix(-1.1,0,0,-1.1,-1.1,0)"
         inkscape:connector-curvature="0" />
    </marker>
    <marker
       inkscape:stockid="Arrow2Lend"
       orient="auto"
       refY="0"
       refX="0"
       id="Arrow2Lend-0"
       style="overflow:visible">
      <path
         id="path3902-5"
         style="font-size:12px;fill-rule:evenodd;stroke-width:0.625;stroke-linejoin:round"
         d="M 8.7185878,4.0337352 -2.2072895,0.01601326 8.7185884,-4.0017078 c -1.7454984,2.3720609 -1.7354408,5.6174519 -6e-7,8.035443 z"
         transform="matrix(-1.1,0,0,-1.1,-1.1,0)"
         inkscape:connector-curvature="0" />
    </marker>
    <marker
       inkscape:stockid="Arrow2Lend"
       orient="auto"
       refY="0"
       refX="0"
       id="marker5581"
       style="overflow:visible">
      <path
         id="path5583"
         style="font-size:12px;fill-rule:evenodd;stroke-width:0.625;stroke-linejoin:round"
         d="M 8.7185878,4.0337352 -2.2072895,0.01601326 8.7185884,-4.0017078 c -1.7454984,2.3720609 -1.7354408,5.6174519 -6e-7,8.035443 z"
         transform="matrix(-1.1,0,0,-1.1,-1.1,0)"
         inkscape:connector-curvature="0" />
    </marker>
    <marker
       inkscape:stockid="Arrow2Lend"
       orient="auto"
       refY="0"
       refX="0"
       id="Arrow2Lend-8"
       style="overflow:visible">
      <path
         id="path3902-94"
         style="font-size:12px;fill-rule:evenodd;stroke-width:0.625;stroke-linejoin:round"
         d="M 8.7185878,4.0337352 -2.2072895,0.01601326 8.7185884,-4.0017078 c -1.7454984,2.3720609 -1.7354408,5.6174519 -6e-7,8.035443 z"
         transform="matrix(-1.1,0,0,-1.1,-1.1,0)"
         inkscape:connector-curvature="0" />
    </marker>
  </defs>
  <sodipodi:namedview
     id="base"
     pagecolor="#ffffff"
     bordercolor="#666666"
     borderopacity="1.0"
     inkscape:pageopacity="0.0"
     inkscape:pageshadow="2"
     inkscape:zoom="0.7"
     inkscape:cx="-765.81481"
     inkscape:cy="806.44862"
     inkscape:document-units="px"
     inkscape:current-layer="layer1"
     showgrid="false"
     inkscape:window-width="1920"
     inkscape:window-height="1018"
     inkscape:window-x="-8"
     inkscape:window-y="-8"
     inkscape:window-maximized="1" />
  <metadata
     id="metadata4931">
    <rdf:RDF>
      <cc:Work
         rdf:about="">
        <dc:format>image/svg+xml</dc:format>
        <dc:type
           rdf:resource="http://purl.org/dc/dcmitype/StillImage" />
        <dc:title></dc:title>
      </cc:Work>
    </rdf:RDF>
  </metadata>
  <g
     inkscape:label="Layer 1"
     inkscape:groupmode="layer"
     id="layer1">
    <g
       id="g5687">
      <path
         transform="matrix(0.76697618,0,0,0.76697618,-1368.0066,-302.95003)"
         d="m 405.71429,275.21933 a 62.857143,62.857143 0 1 1 -125.71429,0 62.857143,62.857143 0 1 1 125.71429,0 z"
         sodipodi:ry="62.857143"
         sodipodi:rx="62.857143"
         sodipodi:cy="275.21933"
         sodipodi:cx="342.85715"
         id="path2989"
         style="fill:none;stroke:#000000;stroke-width:6.51910734;stroke-linecap:butt;stroke-miterlimit:4;stroke-opacity:1;stroke-dasharray:none;stroke-dashoffset:0"
         sodipodi:type="arc" />
      <path
         transform="matrix(0.76697618,0,0,0.76697618,-1256.7798,-130.38349)"
         d="m 405.71429,275.21933 a 62.857143,62.857143 0 1 1 -125.71429,0 62.857143,62.857143 0 1 1 125.71429,0 z"
         sodipodi:ry="62.857143"
         sodipodi:rx="62.857143"
         sodipodi:cy="275.21933"
         sodipodi:cx="342.85715"
         id="path2989-0"
         style="fill:none;stroke:#000000;stroke-width:6.51910734;stroke-linecap:butt;stroke-miterlimit:4;stroke-opacity:1;stroke-dasharray:none;stroke-dashoffset:0"
         sodipodi:type="arc" />
      <path
         transform="matrix(0.76697618,0,0,0.76697618,-1467.9017,-129.37333)"
         d="m 405.71429,275.21933 a 62.857143,62.857143 0 1 1 -125.71429,0 62.857143,62.857143 0 1 1 125.71429,0 z"
         sodipodi:ry="62.857143"
         sodipodi:rx="62.857143"
         sodipodi:cy="275.21933"
         sodipodi:cx="342.85715"
         id="path2989-8"
         style="fill:none;stroke:#000000;stroke-width:6.51910734;stroke-linecap:butt;stroke-miterlimit:4;stroke-opacity:1;stroke-dasharray:none;stroke-dashoffset:0"
         sodipodi:type="arc" />
      <path
         inkscape:connector-curvature="0"
         id="path3876"
         d="m -1133.2176,-47.586186 -56.4825,75.90411"
         style="fill:none;stroke:#000000;stroke-width:3.00000024;stroke-linecap:butt;stroke-linejoin:miter;stroke-miterlimit:4;stroke-opacity:1;stroke-dasharray:none;marker-end:url(#Arrow2Lend)" />
      <path
         inkscape:connector-curvature="0"
         id="path3015"
         d="m -1073.6186,-47.586186 52.4823,76.97557"
         style="fill:none;stroke:#000000;stroke-width:3;stroke-linecap:butt;stroke-linejoin:miter;stroke-miterlimit:4;stroke-opacity:1;stroke-dasharray:none;marker-end:url(#Arrow2Lend)" />
      <path
         inkscape:connector-curvature="0"
         id="path3017"
         d="m -1227.1618,130.20066 -51.5178,107.07617"
         style="fill:none;stroke:#000000;stroke-width:3;stroke-linecap:butt;stroke-linejoin:miter;stroke-miterlimit:4;stroke-opacity:1;stroke-dasharray:none;marker-end:url(#Arrow2Lend)" />
      <path
         inkscape:connector-curvature="0"
         id="path3019"
         d="m -1182.7151,132.22096 57.5787,95.96449"
         style="fill:none;stroke:#000000;stroke-width:3;stroke-linecap:butt;stroke-linejoin:miter;stroke-miterlimit:4;stroke-opacity:1;stroke-dasharray:none;marker-end:url(#Arrow2Lend)" />
      <path
         sodipodi:nodetypes="cc"
         inkscape:connector-curvature="0"
         id="path3021"
         d="m -976.64398,132.22094 17.17258,106.06602"
         style="fill:none;stroke:#000000;stroke-width:3;stroke-linecap:butt;stroke-linejoin:miter;stroke-miterlimit:4;stroke-opacity:1;stroke-dasharray:none;marker-start:none;marker-end:url(#Arrow2Lend)" />
      <path
         transform="matrix(0.76697618,0,0,0.76697618,-1214.5448,83.904094)"
         d="m 405.71429,275.21933 a 62.857143,62.857143 0 1 1 -125.71429,0 62.857143,62.857143 0 1 1 125.71429,0 z"
         sodipodi:ry="62.857143"
         sodipodi:rx="62.857143"
         sodipodi:cy="275.21933"
         sodipodi:cx="342.85715"
         id="path2989-0-2"
         style="fill:none;stroke:#000000;stroke-width:6.51910734;stroke-linecap:butt;stroke-miterlimit:4;stroke-opacity:1;stroke-dasharray:none;stroke-dashoffset:0"
         sodipodi:type="arc" />
      <path
         transform="matrix(0.76697618,0,0,0.76697618,-1382.2301,72.792424)"
         d="m 405.71429,275.21933 a 62.857143,62.857143 0 1 1 -125.71429,0 62.857143,62.857143 0 1 1 125.71429,0 z"
         sodipodi:ry="62.857143"
         sodipodi:rx="62.857143"
         sodipodi:cy="275.21933"
         sodipodi:cx="342.85715"
         id="path2989-0-2-2"
         style="fill:none;stroke:#000000;stroke-width:6.51910734;stroke-linecap:butt;stroke-miterlimit:4;stroke-opacity:1;stroke-dasharray:none;stroke-dashoffset:0"
         sodipodi:type="arc" />
      <path
         transform="matrix(0.76697618,0,0,0.76697618,-1554.9662,80.873634)"
         d="m 405.71429,275.21933 a 62.857143,62.857143 0 1 1 -125.71429,0 62.857143,62.857143 0 1 1 125.71429,0 z"
         sodipodi:ry="62.857143"
         sodipodi:rx="62.857143"
         sodipodi:cy="275.21933"
         sodipodi:cx="342.85715"
         id="path2989-0-2-2-3"
         style="fill:none;stroke:#000000;stroke-width:6.51910734;stroke-linecap:butt;stroke-miterlimit:4;stroke-opacity:1;stroke-dasharray:none;stroke-dashoffset:0"
         sodipodi:type="arc" />
      <path
         transform="matrix(0.76697618,0,0,0.76697618,-945.82041,-274.43877)"
         d="m 405.71429,275.21933 a 62.857143,62.857143 0 1 1 -125.71429,0 62.857143,62.857143 0 1 1 125.71429,0 z"
         sodipodi:ry="62.857143"
         sodipodi:rx="62.857143"
         sodipodi:cy="275.21933"
         sodipodi:cx="342.85715"
         id="path2989-0-3"
         style="fill:none;stroke:#000000;stroke-width:6.51910734;stroke-linecap:butt;stroke-miterlimit:4;stroke-opacity:1;stroke-dasharray:none;stroke-dashoffset:0"
         sodipodi:type="arc" />
      <path
         transform="matrix(0.76697618,0,0,0.76697618,-1008.6776,-105.86735)"
         d="m 405.71429,275.21933 a 62.857143,62.857143 0 1 1 -125.71429,0 62.857143,62.857143 0 1 1 125.71429,0 z"
         sodipodi:ry="62.857143"
         sodipodi:rx="62.857143"
         sodipodi:cy="275.21933"
         sodipodi:cx="342.85715"
         id="path2989-0-3-0"
         style="fill:none;stroke:#000000;stroke-width:6.51910734;stroke-linecap:butt;stroke-miterlimit:4;stroke-opacity:1;stroke-dasharray:none;stroke-dashoffset:0"
         sodipodi:type="arc" />
      <path
         transform="matrix(0.76697618,0,0,0.76697618,-818.67755,-134.43878)"
         d="m 405.71429,275.21933 a 62.857143,62.857143 0 1 1 -125.71429,0 62.857143,62.857143 0 1 1 125.71429,0 z"
         sodipodi:ry="62.857143"
         sodipodi:rx="62.857143"
         sodipodi:cy="275.21933"
         sodipodi:cx="342.85715"
         id="path2989-0-3-3"
         style="fill:none;stroke:#000000;stroke-width:6.51910734;stroke-linecap:butt;stroke-miterlimit:4;stroke-opacity:1;stroke-dasharray:none;stroke-dashoffset:0"
         sodipodi:type="arc" />
      <path
         transform="matrix(0.76697618,0,0,0.76697618,-810.10612,66.989804)"
         d="m 405.71429,275.21933 a 62.857143,62.857143 0 1 1 -125.71429,0 62.857143,62.857143 0 1 1 125.71429,0 z"
         sodipodi:ry="62.857143"
         sodipodi:rx="62.857143"
         sodipodi:cy="275.21933"
         sodipodi:cx="342.85715"
         id="path2989-0-3-9"
         style="fill:none;stroke:#000000;stroke-width:6.51910734;stroke-linecap:butt;stroke-miterlimit:4;stroke-opacity:1;stroke-dasharray:none;stroke-dashoffset:0"
         sodipodi:type="arc" />
      <path
         sodipodi:nodetypes="cc"
         inkscape:connector-curvature="0"
         id="path3015-3"
         d="m -950.92087,44.279124 209.9616,-111.10365"
         style="fill:none;stroke:#000000;stroke-width:3;stroke-linecap:butt;stroke-linejoin:miter;stroke-miterlimit:4;stroke-opacity:1;stroke-dasharray:none;marker-end:url(#Arrow2Lend)" />
      <path
         sodipodi:nodetypes="cc"
         inkscape:connector-curvature="0"
         id="path3015-3-1"
         d="m -709.10944,-15.979186 -26.34758,65.38211"
         style="fill:none;stroke:#000000;stroke-width:2.99999976;stroke-linecap:butt;stroke-linejoin:miter;stroke-miterlimit:4;stroke-opacity:1;stroke-dasharray:none;marker-end:url(#Arrow2Lend)" />
      <path
         sodipodi:nodetypes="cc"
         inkscape:connector-curvature="0"
         id="path3015-3-8"
         d="m -641.30304,-27.321106 45.83825,57.64852"
         style="fill:none;stroke:#000000;stroke-width:3;stroke-linecap:butt;stroke-linejoin:miter;stroke-miterlimit:4;stroke-opacity:1;stroke-dasharray:none;marker-end:url(#Arrow2Lend)" />
      <path
         sodipodi:nodetypes="cc"
         inkscape:connector-curvature="0"
         id="path3015-3-4"
         d="m -547.01733,132.6789 0.12396,84.79137"
         style="fill:none;stroke:#000000;stroke-width:3;stroke-linecap:butt;stroke-linejoin:miter;stroke-miterlimit:4;stroke-opacity:1;stroke-dasharray:none;marker-end:url(#Arrow2Lend)" />
      <path
         transform="matrix(0.76697618,0,0,0.76697618,-956.81588,262.32622)"
         d="m 405.71429,275.21933 a 62.857143,62.857143 0 1 1 -125.71429,0 62.857143,62.857143 0 1 1 125.71429,0 z"
         sodipodi:ry="62.857143"
         sodipodi:rx="62.857143"
         sodipodi:cy="275.21933"
         sodipodi:cx="342.85715"
         id="path2989-0-3-6"
         style="fill:none;stroke:#000000;stroke-width:6.51910734;stroke-linecap:butt;stroke-miterlimit:4;stroke-opacity:1;stroke-dasharray:none;stroke-dashoffset:0"
         sodipodi:type="arc" />
      <path
         transform="matrix(0.76697618,0,0,0.76697618,-1019.673,430.89764)"
         d="m 405.71429,275.21933 a 62.857143,62.857143 0 1 1 -125.71429,0 62.857143,62.857143 0 1 1 125.71429,0 z"
         sodipodi:ry="62.857143"
         sodipodi:rx="62.857143"
         sodipodi:cy="275.21933"
         sodipodi:cx="342.85715"
         id="path2989-0-3-0-1"
         style="fill:none;stroke:#000000;stroke-width:6.51910734;stroke-linecap:butt;stroke-miterlimit:4;stroke-opacity:1;stroke-dasharray:none;stroke-dashoffset:0"
         sodipodi:type="arc" />
      <path
         transform="matrix(0.76697618,0,0,0.76697618,-829.67302,402.32621)"
         d="m 405.71429,275.21933 a 62.857143,62.857143 0 1 1 -125.71429,0 62.857143,62.857143 0 1 1 125.71429,0 z"
         sodipodi:ry="62.857143"
         sodipodi:rx="62.857143"
         sodipodi:cy="275.21933"
         sodipodi:cx="342.85715"
         id="path2989-0-3-3-2"
         style="fill:none;stroke:#000000;stroke-width:6.51910734;stroke-linecap:butt;stroke-miterlimit:4;stroke-opacity:1;stroke-dasharray:none;stroke-dashoffset:0"
         sodipodi:type="arc" />
      <path
         transform="matrix(0.76697618,0,0,0.76697618,-821.10159,603.7548)"
         d="m 405.71429,275.21933 a 62.857143,62.857143 0 1 1 -125.71429,0 62.857143,62.857143 0 1 1 125.71429,0 z"
         sodipodi:ry="62.857143"
         sodipodi:rx="62.857143"
         sodipodi:cy="275.21933"
         sodipodi:cx="342.85715"
         id="path2989-0-3-9-6"
         style="fill:none;stroke:#000000;stroke-width:6.51910734;stroke-linecap:butt;stroke-miterlimit:4;stroke-opacity:1;stroke-dasharray:none;stroke-dashoffset:0"
         sodipodi:type="arc" />
      <path
         sodipodi:nodetypes="cc"
         inkscape:connector-curvature="0"
         id="path3015-3-1-3"
         d="m -725.15567,522.30103 -27.0189,60.50567"
         style="fill:none;stroke:#000000;stroke-width:3;stroke-linecap:butt;stroke-linejoin:miter;stroke-miterlimit:4;stroke-opacity:1;stroke-dasharray:none;marker-end:url(#Arrow2Lend)" />
      <path
         sodipodi:nodetypes="cc"
         inkscape:connector-curvature="0"
         id="path3015-3-8-1"
         d="m -652.29847,509.44388 45.8382,57.64853"
         style="fill:none;stroke:#000000;stroke-width:3;stroke-linecap:butt;stroke-linejoin:miter;stroke-miterlimit:4;stroke-opacity:1;stroke-dasharray:none;marker-end:url(#Arrow2Lend)" />
      <path
         sodipodi:nodetypes="cc"
         inkscape:connector-curvature="0"
         id="path3015-3-4-0"
         d="m -558.01277,669.4439 0.1239,84.79141"
         style="fill:none;stroke:#000000;stroke-width:3;stroke-linecap:butt;stroke-linejoin:miter;stroke-miterlimit:4;stroke-opacity:1;stroke-dasharray:none;marker-end:url(#Arrow2Lend)" />
      <path
         transform="matrix(0.76697618,0,0,0.76697618,-1025.8204,628.41837)"
         d="m 405.71429,275.21933 a 62.857143,62.857143 0 1 1 -125.71429,0 62.857143,62.857143 0 1 1 125.71429,0 z"
         sodipodi:ry="62.857143"
         sodipodi:rx="62.857143"
         sodipodi:cy="275.21933"
         sodipodi:cx="342.85715"
         id="path2989-0-3-9-6-3"
         style="fill:none;stroke:#000000;stroke-width:6.51910734;stroke-linecap:butt;stroke-miterlimit:4;stroke-opacity:1;stroke-dasharray:none;stroke-dashoffset:0"
         sodipodi:type="arc" />
      <path
         sodipodi:nodetypes="cc"
         inkscape:connector-curvature="0"
         id="path3015-3-4-0-3"
         d="m -762.98702,697.29591 0.1239,84.7914"
         style="fill:none;stroke:#000000;stroke-width:3;stroke-linecap:butt;stroke-linejoin:miter;stroke-miterlimit:4;stroke-opacity:1;stroke-dasharray:none;marker-end:url(#Arrow2Lend)" />
      <path
         sodipodi:nodetypes="cc"
         inkscape:connector-curvature="0"
         id="path3015-3-4-0-5"
         d="m -904.41559,325.86736 152.98104,149.07708"
         style="fill:none;stroke:#000000;stroke-width:3;stroke-linecap:butt;stroke-linejoin:miter;stroke-miterlimit:4;stroke-opacity:1;stroke-dasharray:none;marker-end:url(#Arrow2Lend)" />
      <path
         transform="matrix(0.76697618,0,0,0.76697618,-1559.4097,244.72346)"
         d="m 405.71429,275.21933 a 62.857143,62.857143 0 1 1 -125.71429,0 62.857143,62.857143 0 1 1 125.71429,0 z"
         sodipodi:ry="62.857143"
         sodipodi:rx="62.857143"
         sodipodi:cy="275.21933"
         sodipodi:cx="342.85715"
         id="path2989-8-3"
         style="fill:none;stroke:#000000;stroke-width:6.51910734;stroke-linecap:butt;stroke-miterlimit:4;stroke-opacity:1;stroke-dasharray:none;stroke-dashoffset:0"
         sodipodi:type="arc" />
      <path
         inkscape:connector-curvature="0"
         id="path3017-9"
         d="m -1318.6698,504.29745 -51.5178,107.07617"
         style="fill:none;stroke:#000000;stroke-width:3;stroke-linecap:butt;stroke-linejoin:miter;stroke-miterlimit:4;stroke-opacity:1;stroke-dasharray:none;marker-end:url(#Arrow2Lend)" />
      <path
         inkscape:connector-curvature="0"
         id="path3019-1"
         d="m -1274.2231,506.31775 57.5787,95.96449"
         style="fill:none;stroke:#000000;stroke-width:3;stroke-linecap:butt;stroke-linejoin:miter;stroke-miterlimit:4;stroke-opacity:1;stroke-dasharray:none;marker-end:url(#Arrow2Lend)" />
      <path
         transform="matrix(0.76697618,0,0,0.76697618,-1473.7381,446.88921)"
         d="m 405.71429,275.21933 a 62.857143,62.857143 0 1 1 -125.71429,0 62.857143,62.857143 0 1 1 125.71429,0 z"
         sodipodi:ry="62.857143"
         sodipodi:rx="62.857143"
         sodipodi:cy="275.21933"
         sodipodi:cx="342.85715"
         id="path2989-0-2-2-2"
         style="fill:none;stroke:#000000;stroke-width:6.51910734;stroke-linecap:butt;stroke-miterlimit:4;stroke-opacity:1;stroke-dasharray:none;stroke-dashoffset:0"
         sodipodi:type="arc" />
      <path
         transform="matrix(0.76697618,0,0,0.76697618,-1646.4742,454.97042)"
         d="m 405.71429,275.21933 a 62.857143,62.857143 0 1 1 -125.71429,0 62.857143,62.857143 0 1 1 125.71429,0 z"
         sodipodi:ry="62.857143"
         sodipodi:rx="62.857143"
         sodipodi:cy="275.21933"
         sodipodi:cx="342.85715"
         id="path2989-0-2-2-3-7"
         style="fill:none;stroke:#000000;stroke-width:6.51910734;stroke-linecap:butt;stroke-miterlimit:4;stroke-opacity:1;stroke-dasharray:none;stroke-dashoffset:0"
         sodipodi:type="arc" />
      <path
         sodipodi:nodetypes="cc"
         inkscape:connector-curvature="0"
         id="path3017-8"
         d="m -1295.5798,344.91043 -1.5178,55.6476"
         style="fill:none;stroke:#000000;stroke-width:3;stroke-linecap:butt;stroke-linejoin:miter;stroke-miterlimit:4;stroke-opacity:1;stroke-dasharray:none;marker-end:url(#Arrow2Lend)" />
      <flowRoot
         transform="translate(-1091.7055,-319.85642)"
         style="font-size:40px;font-style:normal;font-weight:normal;line-height:125%;letter-spacing:0px;word-spacing:0px;fill:#000000;fill-opacity:1;stroke:none;font-family:Sans"
         id="flowRoot5637"
         xml:space="preserve"><flowRegion
           id="flowRegion5639"><rect
             y="36.148724"
             x="44.446712"
             height="88.893425"
             width="828.32507"
             id="rect5641" /></flowRegion><flowPara
           id="flowPara5643">Working Memory</flowPara></flowRoot>      <flowRoot
         transform="translate(-1379.5098,-285.51123)"
         style="font-size:40px;font-style:normal;font-weight:normal;line-height:125%;letter-spacing:0px;word-spacing:0px;fill:#000000;fill-opacity:1;stroke:none;font-family:Sans"
         id="flowRoot5645"
         xml:space="preserve"><flowRegion
           id="flowRegion5647"><rect
             y="654.36206"
             x="604.07123"
             height="64.649765"
             width="454.56863"
             id="rect5649" /></flowRegion><flowPara
           id="flowPara5651">Retrieved from EpMem</flowPara></flowRoot>      <flowRoot
         transform="translate(-1286.5758,-251.16605)"
         style="font-size:40px;font-style:normal;font-weight:normal;line-height:125%;letter-spacing:0px;word-spacing:0px;fill:#000000;fill-opacity:1;stroke:none;font-family:Sans"
         id="flowRoot5653"
         xml:space="preserve"><flowRegion
           id="flowRegion5655"><rect
             y="86.656349"
             x="606.09155"
             height="64.649765"
             width="361.63461"
             id="rect5657" /></flowRegion><flowPara
           id="flowPara5659">EpMem Query</flowPara></flowRoot>      <rect
         ry="10.000001"
         rx="10"
         y="-319.42499"
         x="-1499.0665"
         height="1256.6298"
         width="1204.1018"
         id="rect5661"
         style="fill:none;stroke:#000000;stroke-width:3;stroke-linecap:butt;stroke-miterlimit:4;stroke-opacity:1;stroke-dasharray:none;stroke-dashoffset:0" />
      <path
         inkscape:connector-curvature="0"
         id="path5681"
         d="m -856.60936,-204.26758 0,1139.45207"
         style="fill:none;stroke:#000000;stroke-width:1px;stroke-linecap:butt;stroke-linejoin:miter;stroke-opacity:1" />
      <path
         inkscape:connector-curvature="0"
         id="path5683"
         d="m -296.98485,357.37723 -559.62451,0"
         style="fill:none;stroke:#000000;stroke-width:1px;stroke-linecap:butt;stroke-linejoin:miter;stroke-opacity:1" />
      <path
         inkscape:connector-curvature="0"
         id="path5685"
         d="m -1490.9852,-212.3488 1196.02066,0"
         style="fill:none;stroke:#000000;stroke-width:1px;stroke-linecap:butt;stroke-linejoin:miter;stroke-opacity:1" />
    </g>
  </g>
</svg>
