<?xml version="1.0" encoding="UTF-8" standalone="no"?>
<!-- Created with Inkscape (http://www.inkscape.org/) -->

<svg
   xmlns:dc="http://purl.org/dc/elements/1.1/"
   xmlns:cc="http://creativecommons.org/ns#"
   xmlns:rdf="http://www.w3.org/1999/02/22-rdf-syntax-ns#"
   xmlns:svg="http://www.w3.org/2000/svg"
   xmlns="http://www.w3.org/2000/svg"
   xmlns:sodipodi="http://sodipodi.sourceforge.net/DTD/sodipodi-0.dtd"
   xmlns:inkscape="http://www.inkscape.org/namespaces/inkscape"
   width="1327.4615"
   height="627.82922"
   id="svg2"
   version="1.1"
   inkscape:version="0.48.1 "
   sodipodi:docname="dnf_diagram.pdf">
  <defs
     id="defs4">
    <marker
       inkscape:stockid="Arrow1Send"
       orient="auto"
       refY="0"
       refX="0"
       id="Arrow1Send"
       style="overflow:visible">
      <path
         id="path5195"
         d="M 0,0 5,-5 -12.5,0 5,5 0,0 z"
         style="fill-rule:evenodd;stroke:#000000;stroke-width:1pt;marker-start:none"
         transform="matrix(-0.2,0,0,-0.2,-1.2,0)"
         inkscape:connector-curvature="0" />
    </marker>
    <marker
       inkscape:stockid="Arrow2Send"
       orient="auto"
       refY="0"
       refX="0"
       id="Arrow2Send"
       style="overflow:visible">
      <path
         id="path5213"
         style="font-size:12px;fill-rule:evenodd;stroke-width:0.625;stroke-linejoin:round"
         d="M 8.7185878,4.0337352 -2.2072895,0.01601326 8.7185884,-4.0017078 c -1.7454984,2.3720609 -1.7354408,5.6174519 -6e-7,8.035443 z"
         transform="matrix(-0.3,0,0,-0.3,0.69,0)"
         inkscape:connector-curvature="0" />
    </marker>
    <marker
       inkscape:stockid="Arrow2Mend"
       orient="auto"
       refY="0"
       refX="0"
       id="Arrow2Mend"
       style="overflow:visible">
      <path
         id="path5207"
         style="font-size:12px;fill-rule:evenodd;stroke-width:0.625;stroke-linejoin:round"
         d="M 8.7185878,4.0337352 -2.2072895,0.01601326 8.7185884,-4.0017078 c -1.7454984,2.3720609 -1.7354408,5.6174519 -6e-7,8.035443 z"
         transform="scale(-0.6,-0.6)"
         inkscape:connector-curvature="0" />
    </marker>
    <marker
       inkscape:stockid="Arrow2Lend"
       orient="auto"
       refY="0"
       refX="0"
       id="Arrow2Lend"
       style="overflow:visible">
      <path
         id="path3902"
         style="font-size:12px;fill-rule:evenodd;stroke-width:0.625;stroke-linejoin:round"
         d="M 8.7185878,4.0337352 -2.2072895,0.01601326 8.7185884,-4.0017078 c -1.7454984,2.3720609 -1.7354408,5.6174519 -6e-7,8.035443 z"
         transform="matrix(-1.1,0,0,-1.1,-1.1,0)"
         inkscape:connector-curvature="0" />
    </marker>
    <marker
       inkscape:stockid="Arrow2Lend"
       orient="auto"
       refY="0"
       refX="0"
       id="marker5752"
       style="overflow:visible">
      <path
         id="path5754"
         style="font-size:12px;fill-rule:evenodd;stroke-width:0.625;stroke-linejoin:round"
         d="M 8.7185878,4.0337352 -2.2072895,0.01601326 8.7185884,-4.0017078 c -1.7454984,2.3720609 -1.7354408,5.6174519 -6e-7,8.035443 z"
         transform="matrix(-1.1,0,0,-1.1,-1.1,0)"
         inkscape:connector-curvature="0" />
    </marker>
    <marker
       inkscape:stockid="Arrow2Lend"
       orient="auto"
       refY="0"
       refX="0"
       id="marker5756"
       style="overflow:visible">
      <path
         id="path5758"
         style="font-size:12px;fill-rule:evenodd;stroke-width:0.625;stroke-linejoin:round"
         d="M 8.7185878,4.0337352 -2.2072895,0.01601326 8.7185884,-4.0017078 c -1.7454984,2.3720609 -1.7354408,5.6174519 -6e-7,8.035443 z"
         transform="matrix(-1.1,0,0,-1.1,-1.1,0)"
         inkscape:connector-curvature="0" />
    </marker>
    <marker
       inkscape:stockid="Arrow2Lend"
       orient="auto"
       refY="0"
       refX="0"
       id="marker5760"
       style="overflow:visible">
      <path
         id="path5762"
         style="font-size:12px;fill-rule:evenodd;stroke-width:0.625;stroke-linejoin:round"
         d="M 8.7185878,4.0337352 -2.2072895,0.01601326 8.7185884,-4.0017078 c -1.7454984,2.3720609 -1.7354408,5.6174519 -6e-7,8.035443 z"
         transform="matrix(-1.1,0,0,-1.1,-1.1,0)"
         inkscape:connector-curvature="0" />
    </marker>
    <marker
       inkscape:stockid="Arrow2Lend"
       orient="auto"
       refY="0"
       refX="0"
       id="marker5764"
       style="overflow:visible">
      <path
         id="path5766"
         style="font-size:12px;fill-rule:evenodd;stroke-width:0.625;stroke-linejoin:round"
         d="M 8.7185878,4.0337352 -2.2072895,0.01601326 8.7185884,-4.0017078 c -1.7454984,2.3720609 -1.7354408,5.6174519 -6e-7,8.035443 z"
         transform="matrix(-1.1,0,0,-1.1,-1.1,0)"
         inkscape:connector-curvature="0" />
    </marker>
    <marker
       inkscape:stockid="Arrow2Lend"
       orient="auto"
       refY="0"
       refX="0"
       id="marker5768"
       style="overflow:visible">
      <path
         id="path5770"
         style="font-size:12px;fill-rule:evenodd;stroke-width:0.625;stroke-linejoin:round"
         d="M 8.7185878,4.0337352 -2.2072895,0.01601326 8.7185884,-4.0017078 c -1.7454984,2.3720609 -1.7354408,5.6174519 -6e-7,8.035443 z"
         transform="matrix(-1.1,0,0,-1.1,-1.1,0)"
         inkscape:connector-curvature="0" />
    </marker>
    <marker
       inkscape:stockid="Arrow2Lend"
       orient="auto"
       refY="0"
       refX="0"
       id="marker5772"
       style="overflow:visible">
      <path
         id="path5774"
         style="font-size:12px;fill-rule:evenodd;stroke-width:0.625;stroke-linejoin:round"
         d="M 8.7185878,4.0337352 -2.2072895,0.01601326 8.7185884,-4.0017078 c -1.7454984,2.3720609 -1.7354408,5.6174519 -6e-7,8.035443 z"
         transform="matrix(-1.1,0,0,-1.1,-1.1,0)"
         inkscape:connector-curvature="0" />
    </marker>
    <marker
       inkscape:stockid="Arrow2Lend"
       orient="auto"
       refY="0"
       refX="0"
       id="marker5776"
       style="overflow:visible">
      <path
         id="path5778"
         style="font-size:12px;fill-rule:evenodd;stroke-width:0.625;stroke-linejoin:round"
         d="M 8.7185878,4.0337352 -2.2072895,0.01601326 8.7185884,-4.0017078 c -1.7454984,2.3720609 -1.7354408,5.6174519 -6e-7,8.035443 z"
         transform="matrix(-1.1,0,0,-1.1,-1.1,0)"
         inkscape:connector-curvature="0" />
    </marker>
    <marker
       inkscape:stockid="Arrow2Lend"
       orient="auto"
       refY="0"
       refX="0"
       id="marker5780"
       style="overflow:visible">
      <path
         id="path5782"
         style="font-size:12px;fill-rule:evenodd;stroke-width:0.625;stroke-linejoin:round"
         d="M 8.7185878,4.0337352 -2.2072895,0.01601326 8.7185884,-4.0017078 c -1.7454984,2.3720609 -1.7354408,5.6174519 -6e-7,8.035443 z"
         transform="matrix(-1.1,0,0,-1.1,-1.1,0)"
         inkscape:connector-curvature="0" />
    </marker>
    <marker
       inkscape:stockid="Arrow2Lend"
       orient="auto"
       refY="0"
       refX="0"
       id="marker5784"
       style="overflow:visible">
      <path
         id="path5786"
         style="font-size:12px;fill-rule:evenodd;stroke-width:0.625;stroke-linejoin:round"
         d="M 8.7185878,4.0337352 -2.2072895,0.01601326 8.7185884,-4.0017078 c -1.7454984,2.3720609 -1.7354408,5.6174519 -6e-7,8.035443 z"
         transform="matrix(-1.1,0,0,-1.1,-1.1,0)"
         inkscape:connector-curvature="0" />
    </marker>
    <marker
       inkscape:stockid="Arrow2Lend"
       orient="auto"
       refY="0"
       refX="0"
       id="marker5788"
       style="overflow:visible">
      <path
         id="path5790"
         style="font-size:12px;fill-rule:evenodd;stroke-width:0.625;stroke-linejoin:round"
         d="M 8.7185878,4.0337352 -2.2072895,0.01601326 8.7185884,-4.0017078 c -1.7454984,2.3720609 -1.7354408,5.6174519 -6e-7,8.035443 z"
         transform="matrix(-1.1,0,0,-1.1,-1.1,0)"
         inkscape:connector-curvature="0" />
    </marker>
    <marker
       inkscape:stockid="Arrow2Lend"
       orient="auto"
       refY="0"
       refX="0"
       id="marker5792"
       style="overflow:visible">
      <path
         id="path5794"
         style="font-size:12px;fill-rule:evenodd;stroke-width:0.625;stroke-linejoin:round"
         d="M 8.7185878,4.0337352 -2.2072895,0.01601326 8.7185884,-4.0017078 c -1.7454984,2.3720609 -1.7354408,5.6174519 -6e-7,8.035443 z"
         transform="matrix(-1.1,0,0,-1.1,-1.1,0)"
         inkscape:connector-curvature="0" />
    </marker>
    <marker
       inkscape:stockid="Arrow2Lend"
       orient="auto"
       refY="0"
       refX="0"
       id="marker5796"
       style="overflow:visible">
      <path
         id="path5798"
         style="font-size:12px;fill-rule:evenodd;stroke-width:0.625;stroke-linejoin:round"
         d="M 8.7185878,4.0337352 -2.2072895,0.01601326 8.7185884,-4.0017078 c -1.7454984,2.3720609 -1.7354408,5.6174519 -6e-7,8.035443 z"
         transform="matrix(-1.1,0,0,-1.1,-1.1,0)"
         inkscape:connector-curvature="0" />
    </marker>
    <marker
       inkscape:stockid="Arrow2Lend"
       orient="auto"
       refY="0"
       refX="0"
       id="marker5800"
       style="overflow:visible">
      <path
         id="path5802"
         style="font-size:12px;fill-rule:evenodd;stroke-width:0.625;stroke-linejoin:round"
         d="M 8.7185878,4.0337352 -2.2072895,0.01601326 8.7185884,-4.0017078 c -1.7454984,2.3720609 -1.7354408,5.6174519 -6e-7,8.035443 z"
         transform="matrix(-1.1,0,0,-1.1,-1.1,0)"
         inkscape:connector-curvature="0" />
    </marker>
    <marker
       inkscape:stockid="Arrow2Lend"
       orient="auto"
       refY="0"
       refX="0"
       id="marker5804"
       style="overflow:visible">
      <path
         id="path5806"
         style="font-size:12px;fill-rule:evenodd;stroke-width:0.625;stroke-linejoin:round"
         d="M 8.7185878,4.0337352 -2.2072895,0.01601326 8.7185884,-4.0017078 c -1.7454984,2.3720609 -1.7354408,5.6174519 -6e-7,8.035443 z"
         transform="matrix(-1.1,0,0,-1.1,-1.1,0)"
         inkscape:connector-curvature="0" />
    </marker>
    <marker
       inkscape:stockid="Arrow2Lend"
       orient="auto"
       refY="0"
       refX="0"
       id="marker5808"
       style="overflow:visible">
      <path
         id="path5810"
         style="font-size:12px;fill-rule:evenodd;stroke-width:0.625;stroke-linejoin:round"
         d="M 8.7185878,4.0337352 -2.2072895,0.01601326 8.7185884,-4.0017078 c -1.7454984,2.3720609 -1.7354408,5.6174519 -6e-7,8.035443 z"
         transform="matrix(-1.1,0,0,-1.1,-1.1,0)"
         inkscape:connector-curvature="0" />
    </marker>
    <marker
       inkscape:stockid="Arrow2Lend"
       orient="auto"
       refY="0"
       refX="0"
       id="marker5812"
       style="overflow:visible">
      <path
         id="path5814"
         style="font-size:12px;fill-rule:evenodd;stroke-width:0.625;stroke-linejoin:round"
         d="M 8.7185878,4.0337352 -2.2072895,0.01601326 8.7185884,-4.0017078 c -1.7454984,2.3720609 -1.7354408,5.6174519 -6e-7,8.035443 z"
         transform="matrix(-1.1,0,0,-1.1,-1.1,0)"
         inkscape:connector-curvature="0" />
    </marker>
    <marker
       inkscape:stockid="Arrow2Mend"
       orient="auto"
       refY="0"
       refX="0"
       id="Arrow2Mend-5"
       style="overflow:visible">
      <path
         inkscape:connector-curvature="0"
         id="path5207-0"
         style="font-size:12px;fill-rule:evenodd;stroke-width:0.625;stroke-linejoin:round"
         d="M 8.7185878,4.0337352 -2.2072895,0.01601326 8.7185884,-4.0017078 c -1.7454984,2.3720609 -1.7354408,5.6174519 -6e-7,8.035443 z"
         transform="scale(-0.6,-0.6)" />
    </marker>
    <marker
       inkscape:stockid="Arrow2Mend"
       orient="auto"
       refY="0"
       refX="0"
       id="Arrow2Mend-3"
       style="overflow:visible">
      <path
         inkscape:connector-curvature="0"
         id="path5207-8"
         style="font-size:12px;fill-rule:evenodd;stroke-width:0.625;stroke-linejoin:round"
         d="M 8.7185878,4.0337352 -2.2072895,0.01601326 8.7185884,-4.0017078 c -1.7454984,2.3720609 -1.7354408,5.6174519 -6e-7,8.035443 z"
         transform="scale(-0.6,-0.6)" />
    </marker>
    <marker
       inkscape:stockid="Arrow2Lend"
       orient="auto"
       refY="0"
       refX="0"
       id="Arrow2Lend-0"
       style="overflow:visible">
      <path
         id="path3902-2"
         style="font-size:12px;fill-rule:evenodd;stroke-width:0.625;stroke-linejoin:round"
         d="M 8.7185878,4.0337352 -2.2072895,0.01601326 8.7185884,-4.0017078 c -1.7454984,2.3720609 -1.7354408,5.6174519 -6e-7,8.035443 z"
         transform="matrix(-1.1,0,0,-1.1,-1.1,0)"
         inkscape:connector-curvature="0" />
    </marker>
    <marker
       inkscape:stockid="Arrow2Lend"
       orient="auto"
       refY="0"
       refX="0"
       id="marker5715"
       style="overflow:visible">
      <path
         id="path5717"
         style="font-size:12px;fill-rule:evenodd;stroke-width:0.625;stroke-linejoin:round"
         d="M 8.7185878,4.0337352 -2.2072895,0.01601326 8.7185884,-4.0017078 c -1.7454984,2.3720609 -1.7354408,5.6174519 -6e-7,8.035443 z"
         transform="matrix(-1.1,0,0,-1.1,-1.1,0)"
         inkscape:connector-curvature="0" />
    </marker>
    <marker
       inkscape:stockid="Arrow2Lend"
       orient="auto"
       refY="0"
       refX="0"
       id="marker5719"
       style="overflow:visible">
      <path
         id="path5721"
         style="font-size:12px;fill-rule:evenodd;stroke-width:0.625;stroke-linejoin:round"
         d="M 8.7185878,4.0337352 -2.2072895,0.01601326 8.7185884,-4.0017078 c -1.7454984,2.3720609 -1.7354408,5.6174519 -6e-7,8.035443 z"
         transform="matrix(-1.1,0,0,-1.1,-1.1,0)"
         inkscape:connector-curvature="0" />
    </marker>
    <marker
       inkscape:stockid="Arrow2Lend"
       orient="auto"
       refY="0"
       refX="0"
       id="marker5723"
       style="overflow:visible">
      <path
         id="path5725"
         style="font-size:12px;fill-rule:evenodd;stroke-width:0.625;stroke-linejoin:round"
         d="M 8.7185878,4.0337352 -2.2072895,0.01601326 8.7185884,-4.0017078 c -1.7454984,2.3720609 -1.7354408,5.6174519 -6e-7,8.035443 z"
         transform="matrix(-1.1,0,0,-1.1,-1.1,0)"
         inkscape:connector-curvature="0" />
    </marker>
    <marker
       inkscape:stockid="Arrow2Mend"
       orient="auto"
       refY="0"
       refX="0"
       id="Arrow2Mend-9"
       style="overflow:visible">
      <path
         inkscape:connector-curvature="0"
         id="path5207-3"
         style="font-size:12px;fill-rule:evenodd;stroke-width:0.625;stroke-linejoin:round"
         d="M 8.7185878,4.0337352 -2.2072895,0.01601326 8.7185884,-4.0017078 c -1.7454984,2.3720609 -1.7354408,5.6174519 -6e-7,8.035443 z"
         transform="scale(-0.6,-0.6)" />
    </marker>
    <marker
       inkscape:stockid="Arrow2Mend"
       orient="auto"
       refY="0"
       refX="0"
       id="Arrow2Mend-2"
       style="overflow:visible">
      <path
         inkscape:connector-curvature="0"
         id="path5207-9"
         style="font-size:12px;fill-rule:evenodd;stroke-width:0.625;stroke-linejoin:round"
         d="M 8.7185878,4.0337352 -2.2072895,0.01601326 8.7185884,-4.0017078 c -1.7454984,2.3720609 -1.7354408,5.6174519 -6e-7,8.035443 z"
         transform="scale(-0.6,-0.6)" />
    </marker>
    <marker
       inkscape:stockid="Arrow2Mend"
       orient="auto"
       refY="0"
       refX="0"
       id="Arrow2Mend-0"
       style="overflow:visible">
      <path
         inkscape:connector-curvature="0"
         id="path5207-7"
         style="font-size:12px;fill-rule:evenodd;stroke-width:0.625;stroke-linejoin:round"
         d="M 8.7185878,4.0337352 -2.2072895,0.01601326 8.7185884,-4.0017078 c -1.7454984,2.3720609 -1.7354408,5.6174519 -6e-7,8.035443 z"
         transform="scale(-0.6,-0.6)" />
    </marker>
    <marker
       inkscape:stockid="Arrow2Lend"
       orient="auto"
       refY="0"
       refX="0"
       id="Arrow2Lend-3"
       style="overflow:visible">
      <path
         id="path3902-8"
         style="font-size:12px;fill-rule:evenodd;stroke-width:0.625;stroke-linejoin:round"
         d="M 8.7185878,4.0337352 -2.2072895,0.01601326 8.7185884,-4.0017078 c -1.7454984,2.3720609 -1.7354408,5.6174519 -6e-7,8.035443 z"
         transform="matrix(-1.1,0,0,-1.1,-1.1,0)"
         inkscape:connector-curvature="0" />
    </marker>
    <marker
       inkscape:stockid="Arrow2Lend"
       orient="auto"
       refY="0"
       refX="0"
       id="Arrow2Lend-5"
       style="overflow:visible">
      <path
         id="path3902-4"
         style="font-size:12px;fill-rule:evenodd;stroke-width:0.625;stroke-linejoin:round"
         d="M 8.7185878,4.0337352 -2.2072895,0.01601326 8.7185884,-4.0017078 c -1.7454984,2.3720609 -1.7354408,5.6174519 -6e-7,8.035443 z"
         transform="matrix(-1.1,0,0,-1.1,-1.1,0)"
         inkscape:connector-curvature="0" />
    </marker>
    <marker
       inkscape:stockid="Arrow2Lend"
       orient="auto"
       refY="0"
       refX="0"
       id="Arrow2Lend-2"
       style="overflow:visible">
      <path
         id="path3902-5"
         style="font-size:12px;fill-rule:evenodd;stroke-width:0.625;stroke-linejoin:round"
         d="M 8.7185878,4.0337352 -2.2072895,0.01601326 8.7185884,-4.0017078 c -1.7454984,2.3720609 -1.7354408,5.6174519 -6e-7,8.035443 z"
         transform="matrix(-1.1,0,0,-1.1,-1.1,0)"
         inkscape:connector-curvature="0" />
    </marker>
    <marker
       inkscape:stockid="Arrow2Lend"
       orient="auto"
       refY="0"
       refX="0"
       id="Arrow2Lend-32"
       style="overflow:visible">
      <path
         id="path3902-7"
         style="font-size:12px;fill-rule:evenodd;stroke-width:0.625;stroke-linejoin:round"
         d="M 8.7185878,4.0337352 -2.2072895,0.01601326 8.7185884,-4.0017078 c -1.7454984,2.3720609 -1.7354408,5.6174519 -6e-7,8.035443 z"
         transform="matrix(-1.1,0,0,-1.1,-1.1,0)"
         inkscape:connector-curvature="0" />
    </marker>
    <marker
       inkscape:stockid="Arrow2Lend"
       orient="auto"
       refY="0"
       refX="0"
       id="Arrow2Lend-26"
       style="overflow:visible">
      <path
         id="path3902-6"
         style="font-size:12px;fill-rule:evenodd;stroke-width:0.625;stroke-linejoin:round"
         d="M 8.7185878,4.0337352 -2.2072895,0.01601326 8.7185884,-4.0017078 c -1.7454984,2.3720609 -1.7354408,5.6174519 -6e-7,8.035443 z"
         transform="matrix(-1.1,0,0,-1.1,-1.1,0)"
         inkscape:connector-curvature="0" />
    </marker>
    <marker
       inkscape:stockid="Arrow2Lend"
       orient="auto"
       refY="0"
       refX="0"
       id="Arrow2Lend-7"
       style="overflow:visible">
      <path
         id="path3902-3"
         style="font-size:12px;fill-rule:evenodd;stroke-width:0.625;stroke-linejoin:round"
         d="M 8.7185878,4.0337352 -2.2072895,0.01601326 8.7185884,-4.0017078 c -1.7454984,2.3720609 -1.7354408,5.6174519 -6e-7,8.035443 z"
         transform="matrix(-1.1,0,0,-1.1,-1.1,0)"
         inkscape:connector-curvature="0" />
    </marker>
    <marker
       inkscape:stockid="Arrow2Lend"
       orient="auto"
       refY="0"
       refX="0"
       id="Arrow2Lend-8"
       style="overflow:visible">
      <path
         id="path3902-1"
         style="font-size:12px;fill-rule:evenodd;stroke-width:0.625;stroke-linejoin:round"
         d="M 8.7185878,4.0337352 -2.2072895,0.01601326 8.7185884,-4.0017078 c -1.7454984,2.3720609 -1.7354408,5.6174519 -6e-7,8.035443 z"
         transform="matrix(-1.1,0,0,-1.1,-1.1,0)"
         inkscape:connector-curvature="0" />
    </marker>
    <marker
       inkscape:stockid="Arrow2Lend"
       orient="auto"
       refY="0"
       refX="0"
       id="Arrow2Lend-34"
       style="overflow:visible">
      <path
         id="path3902-9"
         style="font-size:12px;fill-rule:evenodd;stroke-width:0.625;stroke-linejoin:round"
         d="M 8.7185878,4.0337352 -2.2072895,0.01601326 8.7185884,-4.0017078 c -1.7454984,2.3720609 -1.7354408,5.6174519 -6e-7,8.035443 z"
         transform="matrix(-1.1,0,0,-1.1,-1.1,0)"
         inkscape:connector-curvature="0" />
    </marker>
    <marker
       inkscape:stockid="Arrow2Lend"
       orient="auto"
       refY="0"
       refX="0"
       id="Arrow2Lend-71"
       style="overflow:visible">
      <path
         id="path3902-19"
         style="font-size:12px;fill-rule:evenodd;stroke-width:0.625;stroke-linejoin:round"
         d="M 8.7185878,4.0337352 -2.2072895,0.01601326 8.7185884,-4.0017078 c -1.7454984,2.3720609 -1.7354408,5.6174519 -6e-7,8.035443 z"
         transform="matrix(-1.1,0,0,-1.1,-1.1,0)"
         inkscape:connector-curvature="0" />
    </marker>
    <marker
       inkscape:stockid="Arrow2Lend"
       orient="auto"
       refY="0"
       refX="0"
       id="Arrow2Lend-37"
       style="overflow:visible">
      <path
         id="path3902-98"
         style="font-size:12px;fill-rule:evenodd;stroke-width:0.625;stroke-linejoin:round"
         d="M 8.7185878,4.0337352 -2.2072895,0.01601326 8.7185884,-4.0017078 c -1.7454984,2.3720609 -1.7354408,5.6174519 -6e-7,8.035443 z"
         transform="matrix(-1.1,0,0,-1.1,-1.1,0)"
         inkscape:connector-curvature="0" />
    </marker>
    <marker
       inkscape:stockid="Arrow2Lend"
       orient="auto"
       refY="0"
       refX="0"
       id="Arrow2Lend-6"
       style="overflow:visible">
      <path
         id="path3902-89"
         style="font-size:12px;fill-rule:evenodd;stroke-width:0.625;stroke-linejoin:round"
         d="M 8.7185878,4.0337352 -2.2072895,0.01601326 8.7185884,-4.0017078 c -1.7454984,2.3720609 -1.7354408,5.6174519 -6e-7,8.035443 z"
         transform="matrix(-1.1,0,0,-1.1,-1.1,0)"
         inkscape:connector-curvature="0" />
    </marker>
  </defs>
  <sodipodi:namedview
     id="base"
     pagecolor="#ffffff"
     bordercolor="#666666"
     borderopacity="1.0"
     inkscape:pageopacity="0.0"
     inkscape:pageshadow="2"
     inkscape:zoom="0.49497475"
     inkscape:cx="416.20569"
     inkscape:cy="-51.05217"
     inkscape:document-units="px"
     inkscape:current-layer="layer1"
     showgrid="false"
     inkscape:window-width="1920"
     inkscape:window-height="1018"
     inkscape:window-x="-8"
     inkscape:window-y="-8"
     inkscape:window-maximized="1"
     fit-margin-top="0"
     fit-margin-left="0"
     fit-margin-right="0"
     fit-margin-bottom="0" />
  <metadata
     id="metadata7">
    <rdf:RDF>
      <cc:Work
         rdf:about="">
        <dc:format>image/svg+xml</dc:format>
        <dc:type
           rdf:resource="http://purl.org/dc/dcmitype/StillImage" />
        <dc:title></dc:title>
      </cc:Work>
    </rdf:RDF>
  </metadata>
  <g
     inkscape:label="Layer 1"
     inkscape:groupmode="layer"
     id="layer1"
     transform="translate(-1.0656246e-5,-0.01861532)">
    <text
       xml:space="preserve"
       style="font-size:40px;font-style:normal;font-weight:normal;line-height:125%;letter-spacing:0px;word-spacing:0px;fill:#000000;fill-opacity:1;stroke:none;font-family:Sans"
       x="633.36566"
       y="251.60379"
       id="text3849"
       sodipodi:linespacing="125%"
       transform="translate(1.0800296e-5,0.01861657)"><tspan
         sodipodi:role="line"
         id="tspan3851"
         x="633.36566"
         y="251.60379" /></text>
    <g
       id="g5673"
       transform="translate(-70.568058,-225.33073)">
      <g
         transform="matrix(1.4367107,0,0,1.4367107,-82.360228,-137.59654)"
         id="g5631">
        <path
           sodipodi:type="arc"
           style="fill:none;stroke:#000000;stroke-width:8.18706512;stroke-linecap:butt;stroke-miterlimit:4;stroke-opacity:1;stroke-dasharray:none;stroke-dashoffset:0"
           id="path2989"
           sodipodi:cx="342.85715"
           sodipodi:cy="275.21933"
           sodipodi:rx="62.857143"
           sodipodi:ry="62.857143"
           d="m 405.71429,275.21933 c 0,34.71504 -28.1421,62.85714 -62.85714,62.85714 -34.71504,0 -62.85715,-28.1421 -62.85715,-62.85714 0,-34.71504 28.14211,-62.85714 62.85715,-62.85714 34.71504,0 62.85714,28.1421 62.85714,62.85714 z"
           transform="matrix(0.61071948,0,0,0.61071948,41.986454,201.99215)" />
        <path
           sodipodi:type="arc"
           style="fill:none;stroke:#000000;stroke-width:8.18706512;stroke-linecap:butt;stroke-miterlimit:4;stroke-opacity:1;stroke-dasharray:none;stroke-dashoffset:0"
           id="path2989-0"
           sodipodi:cx="342.85715"
           sodipodi:cy="275.21933"
           sodipodi:rx="62.857143"
           sodipodi:ry="62.857143"
           d="m 405.71429,275.21933 c 0,34.71504 -28.1421,62.85714 -62.85714,62.85714 -34.71504,0 -62.85715,-28.1421 -62.85715,-62.85714 0,-34.71504 28.14211,-62.85714 62.85715,-62.85714 34.71504,0 62.85714,28.1421 62.85714,62.85714 z"
           transform="matrix(0.61071948,0,0,0.61071948,130.55292,339.40156)" />
        <path
           sodipodi:type="arc"
           style="fill:none;stroke:#000000;stroke-width:8.18706512;stroke-linecap:butt;stroke-miterlimit:4;stroke-opacity:1;stroke-dasharray:none;stroke-dashoffset:0"
           id="path2989-8"
           sodipodi:cx="342.85715"
           sodipodi:cy="275.21933"
           sodipodi:rx="62.857143"
           sodipodi:ry="62.857143"
           d="m 405.71429,275.21933 c 0,34.71504 -28.1421,62.85714 -62.85714,62.85714 -34.71504,0 -62.85715,-28.1421 -62.85715,-62.85714 0,-34.71504 28.14211,-62.85714 62.85715,-62.85714 34.71504,0 62.85714,28.1421 62.85714,62.85714 z"
           transform="matrix(0.61071948,0,0,0.61071948,-37.556932,340.20592)" />
        <path
           style="fill:none;stroke:#000000;stroke-width:3.00000024;stroke-linecap:butt;stroke-linejoin:miter;stroke-miterlimit:4;stroke-opacity:1;stroke-dasharray:none;marker-end:url(#Arrow2Lend)"
           d="m 228.94169,405.3305 -44.97527,60.4401"
           id="path3876"
           inkscape:connector-curvature="0" />
        <path
           style="fill:none;stroke:#000000;stroke-width:3;stroke-linecap:butt;stroke-linejoin:miter;stroke-miterlimit:4;stroke-opacity:1;stroke-dasharray:none;marker-end:url(#Arrow2Lend)"
           d="m 276.39853,405.3305 41.79004,61.29327"
           id="path3015"
           inkscape:connector-curvature="0" />
        <path
           style="fill:none;stroke:#000000;stroke-width:3;stroke-linecap:butt;stroke-linejoin:miter;stroke-miterlimit:4;stroke-opacity:1;stroke-dasharray:none;marker-end:url(#Arrow2Lend)"
           d="m 154.13682,546.89668 -41.02204,85.26145"
           id="path3017"
           inkscape:connector-curvature="0" />
        <path
           style="fill:none;stroke:#000000;stroke-width:3;stroke-linecap:butt;stroke-linejoin:miter;stroke-miterlimit:4;stroke-opacity:1;stroke-dasharray:none;marker-end:url(#Arrow2Lend)"
           d="m 189.52836,548.50538 45.84814,76.41357"
           id="path3019"
           inkscape:connector-curvature="0" />
        <path
           style="fill:none;stroke:#000000;stroke-width:3;stroke-linecap:butt;stroke-linejoin:miter;stroke-miterlimit:4;stroke-opacity:1;stroke-dasharray:none;marker-start:none;marker-end:url(#Arrow2Lend)"
           d="m 353.61642,548.50537 13.67401,84.4571"
           id="path3021"
           inkscape:connector-curvature="0"
           sodipodi:nodetypes="cc" />
        <flowRoot
           xml:space="preserve"
           id="flowRoot3423"
           style="font-size:40px;font-style:normal;font-weight:normal;line-height:125%;letter-spacing:0px;word-spacing:0px;fill:#000000;fill-opacity:1;stroke:none;font-family:Sans"
           transform="translate(142.93192,19.629933)"><flowRegion
             id="flowRegion3425"><rect
               id="rect3427"
               width="81.822357"
               height="51.51778"
               x="41.416256"
               y="364.74088" /></flowRegion><flowPara
             id="flowPara3429">a</flowPara></flowRoot>        <flowRoot
           xml:space="preserve"
           id="flowRoot3423-8"
           style="font-size:40px;font-style:normal;font-weight:normal;line-height:125%;letter-spacing:0px;word-spacing:0px;fill:#000000;fill-opacity:1;stroke:none;font-family:Sans"
           transform="translate(258.21491,21.822782)"><flowRegion
             id="flowRegion3425-2"><rect
               id="rect3427-6"
               width="81.822357"
               height="51.51778"
               x="41.416256"
               y="364.74088" /></flowRegion><flowPara
             id="flowPara3429-6">b</flowPara></flowRoot>        <flowRoot
           xml:space="preserve"
           id="flowRoot3423-8-7"
           style="font-size:40px;font-style:normal;font-weight:normal;line-height:125%;letter-spacing:0px;word-spacing:0px;fill:#000000;fill-opacity:1;stroke:none;font-family:Sans"
           transform="translate(64.660534,176.04645)"><flowRegion
             id="flowRegion3425-2-7"><rect
               id="rect3427-6-2"
               width="81.822357"
               height="51.51778"
               x="41.416256"
               y="364.74088" /></flowRegion><flowPara
             id="flowPara3429-6-8">c</flowPara></flowRoot>        <flowRoot
           xml:space="preserve"
           id="flowRoot3423-8-7-1"
           style="font-size:40px;font-style:normal;font-weight:normal;line-height:125%;letter-spacing:0px;word-spacing:0px;fill:#000000;fill-opacity:1;stroke:none;font-family:Sans"
           transform="translate(170.73202,171.32536)"><flowRegion
             id="flowRegion3425-2-7-8"><rect
               id="rect3427-6-2-1"
               width="81.822357"
               height="51.51778"
               x="41.416256"
               y="364.74088" /></flowRegion><flowPara
             id="flowPara3429-6-8-0">d</flowPara></flowRoot>        <flowRoot
           xml:space="preserve"
           id="flowRoot3423-8-7-8"
           style="font-size:40px;font-style:normal;font-weight:normal;line-height:125%;letter-spacing:0px;word-spacing:0px;fill:#000000;fill-opacity:1;stroke:none;font-family:Sans"
           transform="translate(332.35643,179.40658)"><flowRegion
             id="flowRegion3425-2-7-7"><rect
               id="rect3427-6-2-2"
               width="81.822357"
               height="51.51778"
               x="41.416256"
               y="364.74088" /></flowRegion><flowPara
             id="flowPara3429-6-8-5">e</flowPara></flowRoot>        <flowRoot
           xml:space="preserve"
           id="flowRoot3423-8-7-88"
           style="font-size:40px;font-style:normal;font-weight:normal;line-height:125%;letter-spacing:0px;word-spacing:0px;fill:#000000;fill-opacity:1;stroke:none;font-family:Sans"
           transform="translate(64.666004,273.35076)"><flowRegion
             id="flowRegion3425-2-7-9"><rect
               id="rect3427-6-2-9"
               width="81.822357"
               height="51.51778"
               x="41.416256"
               y="364.74088" /></flowRegion><flowPara
             id="flowPara3429-6-8-1">f</flowPara></flowRoot>        <flowRoot
           xml:space="preserve"
           id="flowRoot3423-8-7-18"
           style="font-size:40px;font-style:normal;font-weight:normal;line-height:125%;letter-spacing:0px;word-spacing:0px;fill:#000000;fill-opacity:1;stroke:none;font-family:Sans"
           transform="translate(180.83355,262.23909)"><flowRegion
             id="flowRegion3425-2-7-5"><rect
               id="rect3427-6-2-8"
               width="81.822357"
               height="51.51778"
               x="41.416256"
               y="364.74088" /></flowRegion><flowPara
             id="flowPara3429-6-8-4">g</flowPara></flowRoot>        <flowRoot
           xml:space="preserve"
           id="flowRoot3423-8-7-2"
           style="font-size:40px;font-style:normal;font-weight:normal;line-height:125%;letter-spacing:0px;word-spacing:0px;fill:#000000;fill-opacity:1;stroke:none;font-family:Sans"
           transform="translate(315.18384,273.35076)"><flowRegion
             id="flowRegion3425-2-7-88"><rect
               id="rect3427-6-2-4"
               width="81.822357"
               height="51.51778"
               x="41.416256"
               y="364.74088" /></flowRegion><flowPara
             id="flowPara3429-6-8-13">h</flowPara></flowRoot>      </g>
      <path
         transform="matrix(0.61071948,0,0,0.61071948,856.32141,245.16501)"
         d="m 405.71429,275.21933 c 0,34.71504 -28.1421,62.85714 -62.85714,62.85714 -34.71504,0 -62.85715,-28.1421 -62.85715,-62.85714 0,-34.71504 28.14211,-62.85714 62.85715,-62.85714 34.71504,0 62.85714,28.1421 62.85714,62.85714 z"
         sodipodi:ry="62.857143"
         sodipodi:rx="62.857143"
         sodipodi:cy="275.21933"
         sodipodi:cx="342.85715"
         id="path2989-2"
         style="fill:none;stroke:#000000;stroke-width:8.18706512;stroke-linecap:butt;stroke-miterlimit:4;stroke-opacity:1;stroke-dasharray:none;stroke-dashoffset:0"
         sodipodi:type="arc" />
      <path
         transform="matrix(0.48215461,0,0,0.48215461,816.55814,425.00037)"
         d="m 405.71429,275.21933 c 0,34.71504 -28.1421,62.85714 -62.85714,62.85714 -34.71504,0 -62.85715,-28.1421 -62.85715,-62.85714 0,-34.71504 28.14211,-62.85714 62.85715,-62.85714 34.71504,0 62.85714,28.1421 62.85714,62.85714 z"
         sodipodi:ry="62.857143"
         sodipodi:rx="62.857143"
         sodipodi:cy="275.21933"
         sodipodi:cx="342.85715"
         id="path2989-8-7"
         style="fill:none;stroke:#000000;stroke-width:10.37011814;stroke-linecap:butt;stroke-miterlimit:4;stroke-opacity:1;stroke-dasharray:none;stroke-dashoffset:0"
         sodipodi:type="arc" />
      <flowRoot
         transform="translate(929.46595,169.89679)"
         style="font-size:40px;font-style:normal;font-weight:normal;line-height:125%;letter-spacing:0px;word-spacing:0px;fill:#000000;fill-opacity:1;stroke:none;font-family:Sans"
         id="flowRoot3423-9"
         xml:space="preserve"><flowRegion
           id="flowRegion3425-9"><rect
             y="364.74088"
             x="41.416256"
             height="51.51778"
             width="81.822357"
             id="rect3427-0" /></flowRegion><flowPara
           id="flowPara3429-3">a</flowPara></flowRoot>      <path
         transform="matrix(0.48215461,0,0,0.48215461,1024.6495,429.04097)"
         d="m 405.71429,275.21933 c 0,34.71504 -28.1421,62.85714 -62.85714,62.85714 -34.71504,0 -62.85715,-28.1421 -62.85715,-62.85714 0,-34.71504 28.14211,-62.85714 62.85715,-62.85714 34.71504,0 62.85714,28.1421 62.85714,62.85714 z"
         sodipodi:ry="62.857143"
         sodipodi:rx="62.857143"
         sodipodi:cy="275.21933"
         sodipodi:cx="342.85715"
         id="path2989-8-7-8"
         style="fill:none;stroke:#000000;stroke-width:10.37011814;stroke-linecap:butt;stroke-miterlimit:4;stroke-opacity:1;stroke-dasharray:none;stroke-dashoffset:0"
         sodipodi:type="arc" />
      <flowRoot
         transform="translate(1137.5574,173.93739)"
         style="font-size:40px;font-style:normal;font-weight:normal;line-height:125%;letter-spacing:0px;word-spacing:0px;fill:#000000;fill-opacity:1;stroke:none;font-family:Sans"
         id="flowRoot3423-9-9"
         xml:space="preserve"><flowRegion
           id="flowRegion3425-9-9"><rect
             y="364.74088"
             x="41.416256"
             height="51.51778"
             width="81.822357"
             id="rect3427-0-5" /></flowRegion><flowPara
           id="flowPara3429-3-4">b</flowPara></flowRoot>      <path
         transform="matrix(0.60268417,0,0,0.48215461,701.99765,570.46233)"
         d="m 405.71429,275.21933 c 0,34.71504 -28.1421,62.85714 -62.85714,62.85714 -34.71504,0 -62.85715,-28.1421 -62.85715,-62.85714 0,-34.71504 28.14211,-62.85714 62.85715,-62.85714 34.71504,0 62.85714,28.1421 62.85714,62.85714 z"
         sodipodi:ry="62.857143"
         sodipodi:rx="62.857143"
         sodipodi:cy="275.21933"
         sodipodi:cx="342.85715"
         id="path2989-8-7-7"
         style="fill:none;stroke:#000000;stroke-width:9.27538586;stroke-linecap:butt;stroke-miterlimit:4;stroke-opacity:1;stroke-dasharray:none;stroke-dashoffset:0"
         sodipodi:type="arc" />
      <flowRoot
         transform="translate(845.62328,317.37906)"
         style="font-size:40px;font-style:normal;font-weight:normal;line-height:125%;letter-spacing:0px;word-spacing:0px;fill:#000000;fill-opacity:1;stroke:none;font-family:Sans"
         id="flowRoot3423-9-6"
         xml:space="preserve"><flowRegion
           id="flowRegion3425-9-1"><rect
             y="364.74088"
             x="41.416256"
             height="51.51778"
             width="81.822357"
             id="rect3427-0-3" /></flowRegion><flowPara
           id="flowPara3429-3-3">c f</flowPara></flowRoot>      <path
         transform="matrix(0.69107252,0,0,0.48215461,828.26672,572.48264)"
         d="m 405.71429,275.21933 c 0,34.71504 -28.1421,62.85714 -62.85714,62.85714 -34.71504,0 -62.85715,-28.1421 -62.85715,-62.85714 0,-34.71504 28.14211,-62.85714 62.85715,-62.85714 34.71504,0 62.85714,28.1421 62.85714,62.85714 z"
         sodipodi:ry="62.857143"
         sodipodi:rx="62.857143"
         sodipodi:cy="275.21933"
         sodipodi:cx="342.85715"
         id="path2989-8-7-7-7"
         style="fill:none;stroke:#000000;stroke-width:8.66193771;stroke-linecap:butt;stroke-miterlimit:4;stroke-opacity:1;stroke-dasharray:none;stroke-dashoffset:0"
         sodipodi:type="arc" />
      <flowRoot
         transform="translate(996.64109,319.39937)"
         style="font-size:40px;font-style:normal;font-weight:normal;line-height:125%;letter-spacing:0px;word-spacing:0px;fill:#000000;fill-opacity:1;stroke:none;font-family:Sans"
         id="flowRoot3423-9-6-2"
         xml:space="preserve"><flowRegion
           id="flowRegion3425-9-1-3"><rect
             y="364.74088"
             x="41.416256"
             height="51.51778"
             width="81.822357"
             id="rect3427-0-3-9" /></flowRegion><flowPara
           id="flowPara3429-3-3-4">d g</flowPara></flowRoot>      <path
         transform="matrix(0.67500191,0,0,0.48215461,1007.5229,566.42172)"
         d="m 405.71429,275.21933 c 0,34.71504 -28.1421,62.85714 -62.85714,62.85714 -34.71504,0 -62.85715,-28.1421 -62.85715,-62.85714 0,-34.71504 28.14211,-62.85714 62.85715,-62.85714 34.71504,0 62.85714,28.1421 62.85714,62.85714 z"
         sodipodi:ry="62.857143"
         sodipodi:rx="62.857143"
         sodipodi:cy="275.21933"
         sodipodi:cx="342.85715"
         id="path2989-8-7-7-2"
         style="fill:none;stroke:#000000;stroke-width:8.76444435;stroke-linecap:butt;stroke-miterlimit:4;stroke-opacity:1;stroke-dasharray:none;stroke-dashoffset:0"
         sodipodi:type="arc" />
      <flowRoot
         transform="translate(1171.3974,313.33845)"
         style="font-size:40px;font-style:normal;font-weight:normal;line-height:125%;letter-spacing:0px;word-spacing:0px;fill:#000000;fill-opacity:1;stroke:none;font-family:Sans"
         id="flowRoot3423-9-6-4"
         xml:space="preserve"><flowRegion
           id="flowRegion3425-9-1-0"><rect
             y="364.74088"
             x="41.416256"
             height="51.51778"
             width="81.822357"
             id="rect3427-0-3-8" /></flowRegion><flowPara
           id="flowPara3429-3-3-5">e h</flowPara></flowRoot>      <path
         sodipodi:nodetypes="cc"
         inkscape:connector-curvature="0"
         id="path3021-7"
         d="m 919.72978,666.79092 43.97859,-75.14701"
         style="fill:none;stroke:#000000;stroke-width:3;stroke-linecap:butt;stroke-linejoin:miter;stroke-miterlimit:4;stroke-opacity:1;stroke-dasharray:none;marker-start:none;marker-end:url(#Arrow2Lend)" />
      <path
         sodipodi:nodetypes="cc"
         inkscape:connector-curvature="0"
         id="path3021-2"
         d="m 1048.0191,668.81122 -42.8945,-79.18761"
         style="fill:none;stroke:#000000;stroke-width:3;stroke-linecap:butt;stroke-linejoin:miter;stroke-miterlimit:4;stroke-opacity:1;stroke-dasharray:none;marker-start:none;marker-end:url(#Arrow2Lend)" />
      <path
         sodipodi:nodetypes="cc"
         inkscape:connector-curvature="0"
         id="path3021-9"
         d="m 999.53188,521.32895 38.92782,-69.08609"
         style="fill:none;stroke:#000000;stroke-width:3;stroke-linecap:butt;stroke-linejoin:miter;stroke-miterlimit:4;stroke-opacity:1;stroke-dasharray:none;marker-start:none;marker-end:url(#Arrow2Lend)" />
      <path
         sodipodi:nodetypes="cc"
         inkscape:connector-curvature="0"
         id="path3021-26"
         d="m 1226.8161,660.73 -27.7422,-64.03532"
         style="fill:none;stroke:#000000;stroke-width:3;stroke-linecap:butt;stroke-linejoin:miter;stroke-miterlimit:4;stroke-opacity:1;stroke-dasharray:none;marker-start:none;marker-end:url(#Arrow2Lend)" />
      <path
         sodipodi:nodetypes="cc"
         inkscape:connector-curvature="0"
         id="path3021-4"
         d="m 1170.2475,528.40002 -67.1381,-81.20791"
         style="fill:none;stroke:#000000;stroke-width:3;stroke-linecap:butt;stroke-linejoin:miter;stroke-miterlimit:4;stroke-opacity:1;stroke-dasharray:none;marker-start:none;marker-end:url(#Arrow2Lend)" />
      <path
         sodipodi:nodetypes="cc"
         inkscape:connector-curvature="0"
         id="path3021-77"
         d="m 845.98865,577.8975 99.53697,-28.67999"
         style="fill:none;stroke:#000000;stroke-width:3;stroke-linecap:butt;stroke-linejoin:miter;stroke-miterlimit:4;stroke-opacity:1;stroke-dasharray:none;marker-start:none;marker-end:url(#Arrow2Lend)" />
      <flowRoot
         transform="matrix(0.638323,0,0,0.638323,432.36226,468.40061)"
         style="font-size:40px;font-style:normal;font-weight:normal;line-height:125%;letter-spacing:0px;word-spacing:0px;fill:#000000;fill-opacity:1;stroke:none;font-family:Sans"
         id="flowRoot3841"
         xml:space="preserve"><flowRegion
           id="flowRegion3843"><rect
             y="175.84235"
             x="525.2793"
             height="144.45181"
             width="574.77679"
             id="rect3845" /></flowRegion><flowPara
           id="flowPara3847">is edge a</flowPara><flowPara
           id="flowPara3853">present?</flowPara></flowRoot>      <flowRoot
         transform="matrix(0.638323,0,0,0.638323,453.01604,678.41203)"
         style="font-size:40px;font-style:normal;font-weight:normal;line-height:125%;letter-spacing:0px;word-spacing:0px;fill:#000000;fill-opacity:1;stroke:none;font-family:Sans"
         id="flowRoot3841-0"
         xml:space="preserve"><flowRegion
           id="flowRegion3843-9"><rect
             y="175.84235"
             x="525.2793"
             height="144.45181"
             width="574.77679"
             id="rect3845-6" /></flowRegion><flowPara
           id="flowPara3853-1">is leaf c,f</flowPara><flowPara
           id="flowPara3941">present?</flowPara></flowRoot>      <path
         sodipodi:nodetypes="cc"
         inkscape:connector-curvature="0"
         id="path3021-7-3"
         d="m 814.18366,782.1228 49.97587,-64.31851"
         style="fill:none;stroke:#000000;stroke-width:3;stroke-linecap:butt;stroke-linejoin:miter;stroke-miterlimit:4;stroke-opacity:1;stroke-dasharray:none;marker-start:none;marker-end:url(#Arrow2Lend)" />
      <flowRoot
         transform="matrix(0.638323,0,0,0.638323,695.92641,682.6085)"
         style="font-size:40px;font-style:normal;font-weight:normal;line-height:125%;letter-spacing:0px;word-spacing:0px;fill:#000000;fill-opacity:1;stroke:none;font-family:Sans"
         id="flowRoot3841-0-9"
         xml:space="preserve"><flowRegion
           id="flowRegion3843-9-9"><rect
             y="175.84235"
             x="525.2793"
             height="144.45181"
             width="574.77679"
             id="rect3845-6-3" /></flowRegion><flowPara
           id="flowPara3853-1-4">is leaf d,g</flowPara><flowPara
           id="flowPara3941-0">present?</flowPara></flowRoot>      <flowRoot
         transform="matrix(0.638323,0,0,0.638323,906.03814,666.44605)"
         style="font-size:40px;font-style:normal;font-weight:normal;line-height:125%;letter-spacing:0px;word-spacing:0px;fill:#000000;fill-opacity:1;stroke:none;font-family:Sans"
         id="flowRoot3841-0-3"
         xml:space="preserve"><flowRegion
           id="flowRegion3843-9-0"><rect
             y="175.84235"
             x="525.2793"
             height="144.45181"
             width="574.77679"
             id="rect3845-6-1" /></flowRegion><flowPara
           id="flowPara3853-1-40">is leaf e,h</flowPara><flowPara
           id="flowPara3941-2">present?</flowPara></flowRoot>      <path
         sodipodi:nodetypes="cc"
         inkscape:connector-curvature="0"
         id="path3021-7-3-5"
         d="m 1076.6371,794.74792 -5.5825,-54.21699"
         style="fill:none;stroke:#000000;stroke-width:3;stroke-linecap:butt;stroke-linejoin:miter;stroke-miterlimit:4;stroke-opacity:1;stroke-dasharray:none;marker-start:none;marker-end:url(#Arrow2Lend)" />
      <path
         sodipodi:nodetypes="cc"
         inkscape:connector-curvature="0"
         id="path3021-7-3-58"
         d="m 1267.5559,778.58547 -18.7145,-40.07485"
         style="fill:none;stroke:#000000;stroke-width:3;stroke-linecap:butt;stroke-linejoin:miter;stroke-miterlimit:4;stroke-opacity:1;stroke-dasharray:none;marker-start:none;marker-end:url(#Arrow2Lend)" />
      <flowRoot
         transform="matrix(0.638323,0,0,0.638323,960.11262,437.99574)"
         style="font-size:40px;font-style:normal;font-weight:normal;line-height:125%;letter-spacing:0px;word-spacing:0px;fill:#000000;fill-opacity:1;stroke:none;font-family:Sans"
         id="flowRoot3841-8"
         xml:space="preserve"><flowRegion
           id="flowRegion3843-3"><rect
             y="175.84235"
             x="525.2793"
             height="144.45181"
             width="574.77679"
             id="rect3845-5" /></flowRegion><flowPara
           id="flowPara3847-2">is edge b</flowPara><flowPara
           id="flowPara3853-5">present?</flowPara></flowRoot>      <path
         sodipodi:nodetypes="cc"
         inkscape:connector-curvature="0"
         id="path3021-77-2"
         d="M 1286.0016,574.05609 1228.965,559.51824"
         style="fill:none;stroke:#000000;stroke-width:3;stroke-linecap:butt;stroke-linejoin:miter;stroke-miterlimit:4;stroke-opacity:1;stroke-dasharray:none;marker-start:none;marker-end:url(#Arrow2Lend)" />
      <flowRoot
         transform="matrix(0.58234339,0,0,0.58234339,390.42467,206.1598)"
         style="font-size:40px;font-style:normal;font-weight:normal;line-height:125%;letter-spacing:0px;word-spacing:0px;fill:#000000;fill-opacity:1;stroke:none;font-family:Sans"
         id="flowRoot4077"
         xml:space="preserve"><flowRegion
           id="flowRegion4079"><rect
             y="174.8322"
             x="978.83783"
             height="130.30968"
             width="364.66507"
             id="rect4081" /></flowRegion><flowPara
           style="text-align:center;text-anchor:middle"
           id="flowPara4083">all root to leaf paths are present</flowPara></flowRoot>      <flowRoot
         transform="translate(-43.939075,116.3834)"
         style="font-size:40px;font-style:normal;font-weight:normal;line-height:125%;letter-spacing:0px;word-spacing:0px;fill:#000000;fill-opacity:1;stroke:none;font-family:Sans"
         id="flowRoot4085"
         xml:space="preserve"><flowRegion
           id="flowRegion4087"><rect
             y="112.11529"
             x="197.14285"
             height="82.85714"
             width="271.42856"
             id="rect4089" /></flowRegion><flowPara
           id="flowPara4091">Cue Structure</flowPara></flowRoot>      <flowRoot
         transform="translate(35.570717,118.9225)"
         style="font-size:40px;font-style:normal;font-weight:normal;line-height:125%;letter-spacing:0px;word-spacing:0px;fill:#000000;fill-opacity:1;stroke:none;font-family:Sans"
         id="flowRoot4093"
         xml:space="preserve"><flowRegion
           id="flowRegion4095"><rect
             y="102.11529"
             x="934.28571"
             height="62.857143"
             width="302.85715"
             id="rect4097" /></flowRegion><flowPara
           id="flowPara4099">DNF Graph</flowPara></flowRoot>      <path
         inkscape:connector-curvature="0"
         id="path4101"
         d="m 537.79406,564.90694 153.45976,0"
         style="fill:none;stroke:#000000;stroke-width:20;stroke-linecap:butt;stroke-linejoin:miter;stroke-miterlimit:4;stroke-opacity:1;stroke-dasharray:none;marker-end:url(#Arrow2Send)" />
    </g>
  </g>
</svg>
